<mxfile host="app.diagrams.net" agent="Mozilla/5.0 (Windows NT 10.0; Win64; x64) AppleWebKit/537.36 (KHTML, like Gecko) Chrome/132.0.0.0 Safari/537.36" version="26.0.10">
  <diagram name="Page-1" id="R3SX5wMXtNJIHoPidFIt">
    <mxGraphModel dx="1050" dy="557" grid="1" gridSize="10" guides="1" tooltips="1" connect="1" arrows="1" fold="1" page="1" pageScale="1" pageWidth="827" pageHeight="1169" math="0" shadow="0">
      <root>
        <mxCell id="0" />
        <mxCell id="1" parent="0" />
        <mxCell id="NVkuW_zoewZ-WYteUFID-1" value="" style="points=[[0,0],[0.25,0],[0.5,0],[0.75,0],[1,0],[1,0.25],[1,0.5],[1,0.75],[1,1],[0.75,1],[0.5,1],[0.25,1],[0,1],[0,0.75],[0,0.5],[0,0.25]];outlineConnect=0;gradientColor=none;html=1;whiteSpace=wrap;fontSize=12;fontStyle=0;container=1;pointerEvents=0;collapsible=0;recursiveResize=0;shape=mxgraph.aws4.group;grIcon=mxgraph.aws4.group_account;strokeColor=#CD2264;fillColor=none;verticalAlign=top;align=left;spacingLeft=30;fontColor=#CD2264;dashed=0;" vertex="1" parent="1">
          <mxGeometry x="80" y="23.78" width="880" height="500" as="geometry" />
        </mxCell>
        <mxCell id="NVkuW_zoewZ-WYteUFID-8" value="10.0.0.0/16" style="rounded=0;whiteSpace=wrap;html=1;" vertex="1" parent="NVkuW_zoewZ-WYteUFID-1">
          <mxGeometry x="40" y="46.22" width="100" height="20" as="geometry" />
        </mxCell>
        <mxCell id="NVkuW_zoewZ-WYteUFID-13" value="AWS ACCOUNT" style="text;strokeColor=none;align=center;fillColor=none;html=1;verticalAlign=middle;whiteSpace=wrap;rounded=0;" vertex="1" parent="NVkuW_zoewZ-WYteUFID-1">
          <mxGeometry x="30" y="-3.780000000000001" width="100" height="30" as="geometry" />
        </mxCell>
        <mxCell id="NVkuW_zoewZ-WYteUFID-34" value="EIP" style="points=[];aspect=fixed;html=1;align=center;shadow=0;dashed=0;fillColor=#FF6A00;strokeColor=none;shape=mxgraph.alibaba_cloud.eip_elastic_ip_address;" vertex="1" parent="NVkuW_zoewZ-WYteUFID-1">
          <mxGeometry x="800" y="26.22" width="47.400000000000006" height="46.5" as="geometry" />
        </mxCell>
        <mxCell id="NVkuW_zoewZ-WYteUFID-35" value="EBS" style="outlineConnect=0;dashed=0;verticalLabelPosition=bottom;verticalAlign=top;align=center;html=1;shape=mxgraph.aws3.volume;fillColor=#E05243;gradientColor=none;" vertex="1" parent="NVkuW_zoewZ-WYteUFID-1">
          <mxGeometry x="794.9" y="366.22" width="52.5" height="75" as="geometry" />
        </mxCell>
        <mxCell id="NVkuW_zoewZ-WYteUFID-3" value="VPC" style="sketch=0;outlineConnect=0;gradientColor=none;html=1;whiteSpace=wrap;fontSize=12;fontStyle=0;shape=mxgraph.aws4.group;grIcon=mxgraph.aws4.group_vpc;strokeColor=#879196;fillColor=none;verticalAlign=top;align=left;spacingLeft=30;fontColor=#879196;dashed=0;" vertex="1" parent="1">
          <mxGeometry x="120" y="90" width="720" height="390" as="geometry" />
        </mxCell>
        <mxCell id="NVkuW_zoewZ-WYteUFID-30" style="edgeStyle=orthogonalEdgeStyle;rounded=0;orthogonalLoop=1;jettySize=auto;html=1;" edge="1" parent="1" source="NVkuW_zoewZ-WYteUFID-5">
          <mxGeometry relative="1" as="geometry">
            <mxPoint x="347.7711167866264" y="236" as="targetPoint" />
          </mxGeometry>
        </mxCell>
        <mxCell id="NVkuW_zoewZ-WYteUFID-5" value="Subnet" style="sketch=0;outlineConnect=0;gradientColor=none;html=1;whiteSpace=wrap;fontSize=12;fontStyle=0;shape=mxgraph.aws4.group;grIcon=mxgraph.aws4.group_subnet;strokeColor=#879196;fillColor=none;verticalAlign=top;align=left;spacingLeft=30;fontColor=#879196;dashed=0;" vertex="1" parent="1">
          <mxGeometry x="430" y="130" width="370" height="320" as="geometry" />
        </mxCell>
        <mxCell id="NVkuW_zoewZ-WYteUFID-6" value="10.0.0.0/24" style="rounded=0;whiteSpace=wrap;html=1;" vertex="1" parent="1">
          <mxGeometry x="430" y="110" width="120" height="20" as="geometry" />
        </mxCell>
        <mxCell id="NVkuW_zoewZ-WYteUFID-12" style="edgeStyle=orthogonalEdgeStyle;rounded=0;orthogonalLoop=1;jettySize=auto;html=1;" edge="1" parent="1" source="NVkuW_zoewZ-WYteUFID-10" target="NVkuW_zoewZ-WYteUFID-11">
          <mxGeometry relative="1" as="geometry">
            <Array as="points">
              <mxPoint x="630" y="274" />
              <mxPoint x="630" y="274" />
            </Array>
          </mxGeometry>
        </mxCell>
        <mxCell id="NVkuW_zoewZ-WYteUFID-10" value="security&amp;nbsp;&lt;div&gt;group&lt;/div&gt;" style="image;sketch=0;aspect=fixed;html=1;points=[];align=center;fontSize=12;image=img/lib/mscae/Network_Security_Groups_Classic.svg;" vertex="1" parent="1">
          <mxGeometry x="730" y="240" width="50" height="67.57" as="geometry" />
        </mxCell>
        <mxCell id="NVkuW_zoewZ-WYteUFID-11" value="EC2 instance contents" style="points=[[0,0],[0.25,0],[0.5,0],[0.75,0],[1,0],[1,0.25],[1,0.5],[1,0.75],[1,1],[0.75,1],[0.5,1],[0.25,1],[0,1],[0,0.75],[0,0.5],[0,0.25]];outlineConnect=0;gradientColor=none;html=1;whiteSpace=wrap;fontSize=12;fontStyle=0;container=1;pointerEvents=0;collapsible=0;recursiveResize=0;shape=mxgraph.aws4.group;grIcon=mxgraph.aws4.group_ec2_instance_contents;strokeColor=#D86613;fillColor=none;verticalAlign=top;align=left;spacingLeft=30;fontColor=#D86613;dashed=0;" vertex="1" parent="1">
          <mxGeometry x="480" y="230" width="150" height="130" as="geometry" />
        </mxCell>
        <mxCell id="NVkuW_zoewZ-WYteUFID-53" value="Sonarqube" style="rounded=0;whiteSpace=wrap;html=1;" vertex="1" parent="NVkuW_zoewZ-WYteUFID-11">
          <mxGeometry x="25" y="50" width="100" height="40" as="geometry" />
        </mxCell>
        <mxCell id="NVkuW_zoewZ-WYteUFID-14" value="inbound traffic" style="rounded=0;whiteSpace=wrap;html=1;" vertex="1" parent="1">
          <mxGeometry x="640" y="230" width="70" height="30" as="geometry" />
        </mxCell>
        <mxCell id="NVkuW_zoewZ-WYteUFID-17" style="edgeStyle=orthogonalEdgeStyle;rounded=0;orthogonalLoop=1;jettySize=auto;html=1;entryX=-0.008;entryY=0.808;entryDx=0;entryDy=0;entryPerimeter=0;" edge="1" parent="1" source="NVkuW_zoewZ-WYteUFID-11" target="NVkuW_zoewZ-WYteUFID-10">
          <mxGeometry relative="1" as="geometry" />
        </mxCell>
        <mxCell id="NVkuW_zoewZ-WYteUFID-18" value="outbounded&lt;div&gt;traffic&lt;/div&gt;" style="rounded=0;whiteSpace=wrap;html=1;" vertex="1" parent="1">
          <mxGeometry x="635" y="307.57" width="80" height="40" as="geometry" />
        </mxCell>
        <mxCell id="NVkuW_zoewZ-WYteUFID-24" value="Internet" style="image;aspect=fixed;perimeter=ellipsePerimeter;html=1;align=center;shadow=0;dashed=0;spacingTop=3;image=img/lib/active_directory/internet_cloud.svg;" vertex="1" parent="1">
          <mxGeometry x="10" y="60" width="65.87" height="41.5" as="geometry" />
        </mxCell>
        <mxCell id="NVkuW_zoewZ-WYteUFID-26" style="edgeStyle=orthogonalEdgeStyle;rounded=0;orthogonalLoop=1;jettySize=auto;html=1;entryX=0.5;entryY=1;entryDx=0;entryDy=0;" edge="1" parent="1" source="NVkuW_zoewZ-WYteUFID-25" target="NVkuW_zoewZ-WYteUFID-24">
          <mxGeometry relative="1" as="geometry" />
        </mxCell>
        <mxCell id="NVkuW_zoewZ-WYteUFID-25" value="Internet&amp;nbsp;&lt;div&gt;gateway&lt;/div&gt;" style="outlineConnect=0;dashed=0;verticalLabelPosition=bottom;verticalAlign=top;align=center;html=1;shape=mxgraph.aws3.internet_gateway;fillColor=#F58534;gradientColor=none;" vertex="1" parent="1">
          <mxGeometry x="90" y="200" width="69" height="72" as="geometry" />
        </mxCell>
        <mxCell id="NVkuW_zoewZ-WYteUFID-28" value="" style="edgeStyle=orthogonalEdgeStyle;rounded=0;orthogonalLoop=1;jettySize=auto;html=1;" edge="1" parent="1" target="NVkuW_zoewZ-WYteUFID-25">
          <mxGeometry relative="1" as="geometry">
            <mxPoint x="270.2288832133736" y="236" as="sourcePoint" />
          </mxGeometry>
        </mxCell>
        <mxCell id="NVkuW_zoewZ-WYteUFID-37" style="edgeStyle=orthogonalEdgeStyle;rounded=0;orthogonalLoop=1;jettySize=auto;html=1;entryX=0.5;entryY=1;entryDx=0;entryDy=0;" edge="1" parent="1" source="NVkuW_zoewZ-WYteUFID-35" target="NVkuW_zoewZ-WYteUFID-11">
          <mxGeometry relative="1" as="geometry" />
        </mxCell>
        <mxCell id="NVkuW_zoewZ-WYteUFID-38" value="" style="curved=1;endArrow=classic;html=1;rounded=0;entryX=0.008;entryY=0.477;entryDx=0;entryDy=0;entryPerimeter=0;" edge="1" parent="1" target="NVkuW_zoewZ-WYteUFID-34">
          <mxGeometry width="50" height="50" relative="1" as="geometry">
            <mxPoint x="540" y="230" as="sourcePoint" />
            <mxPoint x="590" y="180" as="targetPoint" />
            <Array as="points">
              <mxPoint x="590" y="230" />
              <mxPoint x="540" y="180" />
            </Array>
          </mxGeometry>
        </mxCell>
        <mxCell id="NVkuW_zoewZ-WYteUFID-45" value="10.0.0.2/24" style="rounded=0;whiteSpace=wrap;html=1;fillColor=#dae8fc;strokeColor=#6c8ebf;" vertex="1" parent="1">
          <mxGeometry x="270" y="220" width="80" height="30" as="geometry" />
        </mxCell>
        <mxCell id="NVkuW_zoewZ-WYteUFID-46" value="10.0.0.3/24" style="rounded=0;whiteSpace=wrap;html=1;fillColor=#dae8fc;strokeColor=#6c8ebf;" vertex="1" parent="1">
          <mxGeometry x="270" y="250" width="80" height="30" as="geometry" />
        </mxCell>
        <mxCell id="NVkuW_zoewZ-WYteUFID-47" value="10.0.0.1/24" style="rounded=0;whiteSpace=wrap;html=1;fillColor=#dae8fc;strokeColor=#6c8ebf;" vertex="1" parent="1">
          <mxGeometry x="270" y="190" width="80" height="30" as="geometry" />
        </mxCell>
        <mxCell id="NVkuW_zoewZ-WYteUFID-50" style="edgeStyle=orthogonalEdgeStyle;rounded=0;orthogonalLoop=1;jettySize=auto;html=1;entryX=0.73;entryY=0.914;entryDx=0;entryDy=0;entryPerimeter=0;" edge="1" parent="1" source="NVkuW_zoewZ-WYteUFID-46" target="NVkuW_zoewZ-WYteUFID-25">
          <mxGeometry relative="1" as="geometry" />
        </mxCell>
        <mxCell id="NVkuW_zoewZ-WYteUFID-51" style="edgeStyle=orthogonalEdgeStyle;rounded=0;orthogonalLoop=1;jettySize=auto;html=1;entryX=0.725;entryY=0.069;entryDx=0;entryDy=0;entryPerimeter=0;" edge="1" parent="1" source="NVkuW_zoewZ-WYteUFID-47" target="NVkuW_zoewZ-WYteUFID-25">
          <mxGeometry relative="1" as="geometry" />
        </mxCell>
        <mxCell id="NVkuW_zoewZ-WYteUFID-52" value="Route table" style="rounded=1;whiteSpace=wrap;html=1;" vertex="1" parent="1">
          <mxGeometry x="255" y="300" width="110" height="22.43" as="geometry" />
        </mxCell>
      </root>
    </mxGraphModel>
  </diagram>
</mxfile>
